Coordinates
version=1
nRows=9
nColumns=24
inDegrees=yes

Units are S.I. units (second, meters, Newtons, ...)
Angles are in degrees.

endheader
time	pelvis_tilt	pelvis_list	pelvis_rotation	pelvis_tx	pelvis_ty	pelvis_tz	hip_flexion_r	hip_adduction_r	hip_rotation_r	knee_angle_r	ankle_angle_r	subtalar_angle_r	mtp_angle_r	hip_flexion_l	hip_adduction_l	hip_rotation_l	knee_angle_l	ankle_angle_l	subtalar_angle_l	mtp_angle_l	lumbar_extension	lumbar_bending	lumbar_rotation
      4.58000000	    -14.34483148	      0.03786812	      4.25735699	     -0.28509551	     -0.02242379	     -0.01067502	     35.44700867	     -0.65175935	     -8.05809749	     -7.71798476	     -8.41917160	      2.94753358	     14.25753807	      0.09132776	      2.93824607	     -3.29903451	    -14.09346551	      1.41569681	     16.79797845	     14.16495453	     12.78865332	     -0.27928748	     -6.53767653
      4.58500000	    -14.42571974	     -0.02179274	      4.36749140	     -0.27934764	     -0.02311259	     -0.01056553	     35.48691440	     -0.61471446	     -8.04543860	     -8.18973529	     -8.54679093	      2.75492099	     14.20737378	      0.06546035	      2.77086862	     -3.36956728	    -14.47538779	      1.25092530	     17.25897922	     14.50205464	     12.90703548	     -0.19624788	     -6.64096836
      4.59000000	    -14.48464386	     -0.10957534	      4.44019524	     -0.27358460	     -0.02375151	     -0.01046369	     35.47872584	     -0.52890051	     -7.97035088	     -8.60252091	     -8.76733271	      2.56867318	     14.14242974	      0.03072173	      2.56980484	     -3.49869523	    -14.87690583	      1.05039396	     17.70580976	     14.92210361	     13.00310604	     -0.05492213	     -6.68610615
      4.59500000	    -14.53844017	     -0.22490247	      4.56128338	     -0.26783409	     -0.02428638	     -0.01040571	     35.44568464	     -0.44612053	     -7.99002006	     -8.96753370	     -9.10098963	      2.40157731	     14.07493848	      0.00727533	      2.34086413	     -3.52040668	    -15.29814721	      0.82937761	     18.12177996	     15.20740867	     13.09245519	      0.09576109	     -6.81413190
      4.60000000	    -14.59014327	     -0.39915358	      4.64610827	     -0.26205629	     -0.02476249	     -0.01035156	     35.38923877	     -0.29024521	     -7.97681996	     -9.26241318	     -9.55625927	      2.23563555	     13.98992082	      0.00420408	      2.04123091	     -3.62398433	    -15.75122133	      0.59990442	     18.58860545	     15.55432217	     13.18733161	      0.32702094	     -6.90873001
      4.60500000	    -14.63087991	     -0.61371500	      4.73274844	     -0.25628383	     -0.02513749	     -0.01028142	     35.29986382	     -0.09470780	     -7.96223952	     -9.49272809	    -10.10821093	      2.02628732	     13.87021737	      0.02056719	      1.68811733	     -3.76268535	    -16.24327890	      0.32868392	     19.09131771	     15.94880038	     13.27132688	      0.59754573	     -7.00502974
      4.61000000	    -14.63159764	     -0.83835701	      4.80243295	     -0.25056986	     -0.02538146	     -0.01014763	     35.16799587	      0.12917929	     -7.91559345	     -9.69953664	    -10.72524645	      1.71330477	     13.68661669	      0.01993223	      1.30523029	     -4.01323252	    -16.75639118	     -0.03258488	     19.65922701	     16.46008082	     13.30280819	      0.88545940	     -7.08116355
      4.61500000	    -14.62967877	     -1.13204121	      4.81983871	     -0.24475701	     -0.02554463	     -0.01003972	     35.01683507	      0.44214706	     -7.83300688	     -9.86817989	    -11.37221105	      1.39750540	     13.38670132	      0.02202191	      0.85104759	     -4.28274108	    -17.27595053	     -0.44340578	     20.13870479	     17.01828103	     13.35220247	      1.27310913	     -7.10864481
      4.62000000	    -14.67112294	     -1.45034073	      4.93257550	     -0.23901502	     -0.02565273	     -0.01004742	     34.92024063	      0.70856916	     -7.89918761	    -10.05678045	    -12.00075451	      1.09414723	     13.08528601	      0.13746688	      0.37222889	     -4.46036971	    -17.90300362	     -0.83322320	     20.66514135	     17.35678706	     13.44727680	      1.65171751	     -7.25956547
